<?xml version="1.0"?>
<svg xmlns="http://www.w3.org/2000/svg" xmlns:xlink="http://www.w3.org/1999/xlink" version="1.1" viewBox="0 0 252 252" width="80px" height="80px"><g transform="translate(9.954,9.954) scale(0.921,0.921)"><g fill="none" fill-rule="nonzero" stroke="none" stroke-width="none" stroke-linecap="butt" stroke-linejoin="none" stroke-miterlimit="10" stroke-dasharray="" stroke-dashoffset="0" font-family="none" font-weight="none" font-size="none" text-anchor="none" style="mix-blend-mode: normal"><g id="Layer_1 1" stroke="#000000" stroke-width="20" stroke-linejoin="round"><g><path d="M58.275,244.125v-67.8132l-2.2932,1.17495c-4.7187,2.4129 -9.77445,3.63825 -15.0318,3.63825c-18.2385,0 -33.075,-14.8365 -33.075,-33.075c0,-18.2385 14.8365,-33.075 33.075,-33.075c5.25735,0 10.3131,1.22535 15.0318,3.63825l2.2932,1.17495v-61.5132h67.8132l-1.1718,-2.2932c-2.41605,-4.72185 -3.6414,-9.7776 -3.6414,-15.0318c0,-18.2385 14.8365,-33.075 33.075,-33.075c18.2385,0 33.075,14.8365 33.075,33.075c0,5.2542 -1.22535,10.30995 -3.6414,15.0318l-1.1718,2.2932h61.5132v56.45745c-4.50135,-1.93095 -9.2547,-2.90745 -14.175,-2.90745c-19.97415,0 -36.225,16.25085 -36.225,36.225c0,19.97415 16.25085,36.225 36.225,36.225c4.9203,0 9.67365,-0.9765 14.175,-2.90745v62.75745z" fill="#3498db"/><path d="M154.35,9.45c-17.3691,0 -31.5,14.1309 -31.5,31.5c0,5.00535 1.1655,9.81855 3.465,14.3136l2.34675,4.5864h-68.81175v62.5149l-4.5864,-2.34675c-4.49505,-2.30265 -9.30825,-3.46815 -14.3136,-3.46815c-17.3691,0 -31.5,14.1309 -31.5,31.5c0,17.3691 14.1309,31.5 31.5,31.5c5.00535,0 9.81855,-1.1655 14.3136,-3.465l4.5864,-2.34675v68.81175h182.7v-58.8735c-4.04145,1.44585 -8.2593,2.1735 -12.6,2.1735c-20.84355,0 -37.8,-16.95645 -37.8,-37.8c0,-20.84355 16.95645,-37.8 37.8,-37.8c4.3407,0 8.55855,0.72765 12.6,2.1735v-52.5735h-62.5149l2.34675,-4.5864c2.30265,-4.49505 3.46815,-9.30825 3.46815,-14.3136c0,-17.3691 -14.1309,-31.5 -31.5,-31.5M154.35,6.3c19.13625,0 34.65,15.51375 34.65,34.65c0,5.6763 -1.3923,11.02185 -3.8115,15.75h60.5115v60.5115c-4.72815,-2.4192 -10.0737,-3.8115 -15.75,-3.8115c-19.13625,0 -34.65,15.51375 -34.65,34.65c0,19.13625 15.51375,34.65 34.65,34.65c5.6763,0 11.02185,-1.3923 15.75,-3.8115v66.8115h-189v-66.8115c-4.72815,2.4192 -10.0737,3.8115 -15.75,3.8115c-19.13625,0 -34.65,-15.51375 -34.65,-34.65c0,-19.13625 15.51375,-34.65 34.65,-34.65c5.6763,0 11.02185,1.3923 15.75,3.8115v-60.5115h66.8115c-2.4192,-4.72815 -3.8115,-10.0737 -3.8115,-15.75c0,-19.13625 15.51375,-34.65 34.65,-34.65z" fill="#000000"/></g></g><path d="M0,252v-252h252v252z" fill="none" stroke="none" stroke-width="1" stroke-linejoin="miter"/><g id="Layer_1" stroke="none" stroke-width="1" stroke-linejoin="miter"><g><path d="M58.275,244.125v-67.8132l-2.2932,1.17495c-4.7187,2.4129 -9.77445,3.63825 -15.0318,3.63825c-18.2385,0 -33.075,-14.8365 -33.075,-33.075c0,-18.2385 14.8365,-33.075 33.075,-33.075c5.25735,0 10.3131,1.22535 15.0318,3.63825l2.2932,1.17495v-61.5132h67.8132l-1.1718,-2.2932c-2.41605,-4.72185 -3.6414,-9.7776 -3.6414,-15.0318c0,-18.2385 14.8365,-33.075 33.075,-33.075c18.2385,0 33.075,14.8365 33.075,33.075c0,5.2542 -1.22535,10.30995 -3.6414,15.0318l-1.1718,2.2932h61.5132v56.45745c-4.50135,-1.93095 -9.2547,-2.90745 -14.175,-2.90745c-19.97415,0 -36.225,16.25085 -36.225,36.225c0,19.97415 16.25085,36.225 36.225,36.225c4.9203,0 9.67365,-0.9765 14.175,-2.90745v62.75745z" fill="#3498db"/><path d="M154.35,9.45c17.3691,0 31.5,14.1309 31.5,31.5c0,5.00535 -1.1655,9.81855 -3.46815,14.3136l-2.34675,4.5864h5.15025h57.36465v52.5735c-4.04145,-1.44585 -8.2593,-2.1735 -12.6,-2.1735c-20.84355,0 -37.8,16.95645 -37.8,37.8c0,20.84355 16.95645,37.8 37.8,37.8c4.3407,0 8.55855,-0.72765 12.6,-2.1735v58.8735h-182.7v-63.6615v-5.15025l-4.5864,2.34675c-4.49505,2.2995 -9.30825,3.465 -14.3136,3.465c-17.3691,0 -31.5,-14.1309 -31.5,-31.5c0,-17.3691 14.1309,-31.5 31.5,-31.5c5.00535,0 9.81855,1.1655 14.3136,3.46815l4.5864,2.34675v-5.1534v-57.3615h63.6615h5.15025l-2.34675,-4.5864c-2.2995,-4.49505 -3.465,-9.30825 -3.465,-14.3136c0,-17.3691 14.1309,-31.5 31.5,-31.5M154.35,6.3c-19.13625,0 -34.65,15.51375 -34.65,34.65c0,5.6763 1.3923,11.02185 3.8115,15.75h-66.8115v60.5115c-4.72815,-2.4192 -10.0737,-3.8115 -15.75,-3.8115c-19.13625,0 -34.65,15.51375 -34.65,34.65c0,19.13625 15.51375,34.65 34.65,34.65c5.6763,0 11.02185,-1.3923 15.75,-3.8115v66.8115h189v-66.8115c-4.72815,2.4192 -10.0737,3.8115 -15.75,3.8115c-19.13625,0 -34.65,-15.51375 -34.65,-34.65c0,-19.13625 15.51375,-34.65 34.65,-34.65c5.6763,0 11.02185,1.3923 15.75,3.8115v-60.5115h-60.5115c2.4192,-4.72815 3.8115,-10.0737 3.8115,-15.75c0,-19.13625 -15.51375,-34.65 -34.65,-34.65z" fill="#000000"/></g></g><path d="" fill="none" stroke="none" stroke-width="1" stroke-linejoin="miter"/><path d="" fill="none" stroke="none" stroke-width="1" stroke-linejoin="miter"/><path d="" fill="none" stroke="none" stroke-width="1" stroke-linejoin="miter"/><path d="" fill="none" stroke="none" stroke-width="1" stroke-linejoin="miter"/></g></g></svg>
